<?xml version="1.0" encoding="UTF-8"?>
<!DOCTYPE svg PUBLIC "-//W3C//DTD SVG 1.1//EN" "http://www.w3.org/Graphics/SVG/1.1/DTD/svg11.dtd">
<svg xmlns="http://www.w3.org/2000/svg" version="1.1" width="320px" height="320px" style="shape-rendering:geometricPrecision; text-rendering:geometricPrecision; image-rendering:optimizeQuality; fill-rule:evenodd; clip-rule:evenodd" xmlns:xlink="http://www.w3.org/1999/xlink">
<g><path style="opacity:0.148" fill="#fefefe" d="M -0.5,-0.5 C 106.167,-0.5 212.833,-0.5 319.5,-0.5C 319.5,106.167 319.5,212.833 319.5,319.5C 212.833,319.5 106.167,319.5 -0.5,319.5C -0.5,212.833 -0.5,106.167 -0.5,-0.5 Z"/></g>
<g><path style="opacity:0.996" fill="#090a08" d="M 71.5,50.5 C 130.168,50.3333 188.834,50.5 247.5,51C 258.587,53.0887 265.421,59.5887 268,70.5C 268.667,130.5 268.667,190.5 268,250.5C 264.985,259.514 258.818,265.014 249.5,267C 188.833,267.667 128.167,267.667 67.5,267C 59.5074,263.674 54.3407,257.841 52,249.5C 51.3333,189.167 51.3333,128.833 52,68.5C 54.8792,58.4498 61.3792,52.4498 71.5,50.5 Z"/></g>
<g><path style="opacity:1" fill="#6b6b6b" d="M 131.5,62.5 C 150.659,61.503 169.993,61.1697 189.5,61.5C 189.83,81.0072 189.497,100.341 188.5,119.5C 188.5,100.5 188.5,81.5 188.5,62.5C 169.5,62.5 150.5,62.5 131.5,62.5 Z"/></g>
<g><path style="opacity:1" fill="#fdfdfd" d="M 69.5,62.5 C 86.5,62.5 103.5,62.5 120.5,62.5C 120.5,81.5 120.5,100.5 120.5,119.5C 101.167,119.5 81.8333,119.5 62.5,119.5C 62.3334,103.163 62.5001,86.8299 63,70.5C 64.3046,67.0386 66.4713,64.372 69.5,62.5 Z"/></g>
<g><path style="opacity:0.999" fill="#fefefe" d="M 131.5,62.5 C 150.5,62.5 169.5,62.5 188.5,62.5C 188.5,81.5 188.5,100.5 188.5,119.5C 169.5,119.5 150.5,119.5 131.5,119.5C 131.5,100.5 131.5,81.5 131.5,62.5 Z"/></g>
<g><path style="opacity:1" fill="#fdfdfd" d="M 247.5,62.5 C 252.09,63.9213 255.256,66.9213 257,71.5C 257.5,87.4965 257.667,103.497 257.5,119.5C 238.5,119.5 219.5,119.5 200.5,119.5C 200.5,100.5 200.5,81.5 200.5,62.5C 216.167,62.5 231.833,62.5 247.5,62.5 Z"/></g>
<g><path style="opacity:1" fill="#9f9f9f" d="M 247.5,62.5 C 231.833,62.5 216.167,62.5 200.5,62.5C 200.5,81.5 200.5,100.5 200.5,119.5C 199.503,100.341 199.17,81.0072 199.5,61.5C 215.675,61.1703 231.675,61.5036 247.5,62.5 Z"/></g>
<g><path style="opacity:0.997" fill="#fdfdfd" d="M 62.5,130.5 C 81.8333,130.5 101.167,130.5 120.5,130.5C 120.5,149.5 120.5,168.5 120.5,187.5C 101.167,187.5 81.8333,187.5 62.5,187.5C 62.5,168.5 62.5,149.5 62.5,130.5 Z"/></g>
<g><path style="opacity:1" fill="#d1b036" d="M 131.5,130.5 C 150.5,130.5 169.5,130.5 188.5,130.5C 188.5,149.5 188.5,168.5 188.5,187.5C 169.5,187.5 150.5,187.5 131.5,187.5C 131.5,168.5 131.5,149.5 131.5,130.5 Z"/></g>
<g><path style="opacity:1" fill="#69a963" d="M 199.5,130.5 C 218.833,130.5 238.167,130.5 257.5,130.5C 257.5,149.5 257.5,168.5 257.5,187.5C 238.167,187.5 218.833,187.5 199.5,187.5C 199.5,168.5 199.5,149.5 199.5,130.5 Z"/></g>
<g><path style="opacity:1" fill="#6aaa64" d="M 131.5,198.5 C 150.5,198.5 169.5,198.5 188.5,198.5C 188.5,217.833 188.5,237.167 188.5,256.5C 169.5,256.5 150.5,256.5 131.5,256.5C 131.5,237.167 131.5,217.833 131.5,198.5 Z"/></g>
<g><path style="opacity:1" fill="#69a963" d="M 62.5,198.5 C 81.8333,198.5 101.167,198.5 120.5,198.5C 120.5,217.833 120.5,237.167 120.5,256.5C 103.83,256.667 87.1633,256.5 70.5,256C 66.5095,254.01 64.0095,250.843 63,246.5C 62.5001,230.503 62.3334,214.503 62.5,198.5 Z"/></g>
<g><path style="opacity:1" fill="#69a863" d="M 199.5,198.5 C 218.833,198.5 238.167,198.5 257.5,198.5C 257.667,214.17 257.5,229.837 257,245.5C 256.243,251.181 253.076,254.681 247.5,256C 231.503,256.5 215.503,256.667 199.5,256.5C 199.5,237.167 199.5,217.833 199.5,198.5 Z"/></g>
</svg>
